<?xml version="1.0" encoding="UTF-8"?><!DOCTYPE svg PUBLIC "-//W3C//DTD SVG 1.1//EN" "http://www.w3.org/Graphics/SVG/1.1/DTD/svg11.dtd"><svg xmlns="http://www.w3.org/2000/svg"><symbol id="icon-arrow-next" viewBox="0 0 20 20">
  <path d="M16 11h-1v1h-1v-1H4v-1h10V9h1v1h1z" fill-rule="evenodd"/>
</symbol><symbol id="icon-arrow-prev" viewBox="0 0 20 20">
  <path d="M16 11H6v1H5v-1H4v-1h1V9h1v1h10z" fill-rule="evenodd"/>
</symbol><symbol id="icon-close" viewBox="0 0 18 18">
  <path d="M10.404 8.953l7.266 7.266a1.025 1.025 0 0 1-1.45 1.45l-7.267-7.267L1.9 17.454A1.002 1.002 0 1 1 .48 16.04l7.056-7.055L.27 1.72A1.025 1.025 0 1 1 1.72.269l7.267 7.267L16.04.484a1.007 1.007 0 0 1 1.42 0 1 1 0 0 1 0 1.414l-7.056 7.055z" fill="currentColor" fill-rule="evenodd"/>
</symbol><symbol id="icon-download" viewBox="0 0 20 20">
  <path d="M2 18v-1.778h16V18H2zm1.778-8.889h3.555V2h5.334v7.111h3.555L10 14.444 3.778 9.111z" fill-rule="evenodd"/>
</symbol><symbol id="icon-facebook" viewBox="0 0 9 18">
  <path d="M.15 5.962h1.873v-1.81a4.799 4.799 0 0 1 .608-2.785A3.365 3.365 0 0 1 5.555.012a12.18 12.18 0 0 1 3.38.33L8.467 3.1a6.34 6.34 0 0 0-1.52-.228 1.14 1.14 0 0 0-1.392.988v2.1h3l-.202 2.684H5.555V18H2.023V8.645H.15V5.962z" fill-rule="evenodd"/>
</symbol><symbol id="icon-freefon" viewBox="0 0 9 13">
  <path d="M3 8v5H0V0h9v3H3v2h3v3H3z" fill-rule="evenodd"/>
</symbol><symbol id="icon-instagram" viewBox="0 0 15 15">
  <path d="M4.63.22h6.42A3.939 3.939 0 0 1 15 4.14v6.37a3.939 3.939 0 0 1-3.95 3.92H4.63a3.948 3.948 0 0 1-3.96-3.92V4.14A3.948 3.948 0 0 1 4.63.22zm6.42 12.95a2.676 2.676 0 0 0 2.68-2.66V4.14a2.67 2.67 0 0 0-2.68-2.66H4.63a2.678 2.678 0 0 0-2.69 2.66v6.37a2.685 2.685 0 0 0 2.69 2.66h6.42zM7.84 3.66a3.683 3.683 0 0 1 3.69 3.66 3.66 3.66 0 1 1-3.69-3.66zm0 6.06a2.4 2.4 0 1 0 .04-4.8 2.4 2.4 0 0 0-.04 4.8zm3.18-6.86a.938.938 0 0 1 1.32 0c.36.362.36.948 0 1.31a.938.938 0 0 1-1.32 0 .929.929 0 0 1 0-1.31z" fill-rule="evenodd"/>
</symbol><symbol id="icon-landline" viewBox="0 0 10 13">
  <path d="M8.708 8.957a.968.968 0 0 0-1.374-.349c-.406.221-.813.441-1.215.668a.2.2 0 0 1-.278-.021c-.177-.16-.374-.3-.54-.471a9.727 9.727 0 0 1-1.817-2.683 5.364 5.364 0 0 1-.492-1.526.191.191 0 0 1 .116-.228c.4-.213.8-.435 1.2-.657a.873.873 0 0 0 .373-1.334c-.183-.3-.367-.6-.551-.908a55.574 55.574 0 0 0-.569-.933.972.972 0 0 0-1.374-.346c-.409.219-.807.45-1.22.664-.362.18-.64.494-.774.875a4.172 4.172 0 0 0-.169 1.913c.15 1.326.54 2.613 1.15 3.8a12.686 12.686 0 0 0 3.363 4.234 6.45 6.45 0 0 0 2.173 1.248c.54.2 1.142.142 1.633-.159.357-.222.742-.409 1.113-.614a.878.878 0 0 0 .379-1.324c-.372-.616-.748-1.232-1.127-1.849z" fill-rule="evenodd"/>
</symbol><symbol id="icon-look" viewBox="0 0 20 20">
  <path d="M9.986 7.906c-.037 0-.073.002-.109.003.079.21.123.438.123.678.001 1.025-.799 1.853-1.794 1.857a1.8 1.8 0 0 1-.667-.127l-.002.126c.001 1.416 1.099 2.54 2.475 2.535 1.36-.004 2.453-1.136 2.451-2.537-.002-1.415-1.101-2.539-2.477-2.535zm9.69 1.817s-1.792-1.874-3.252-2.992c-1.235-.945-2.54-1.761-4.003-2.283C11.625 4.165 10.82 4.002 10 4c-.82.002-1.625.165-2.421.448-1.463.522-2.768 1.338-4.003 2.283C2.116 7.849.324 9.723.324 9.723a1.231 1.231 0 0 0-.042 1.615s.183.213.654.708c1.348 1.418 2.829 2.666 4.527 3.621 1.316.74 2.704 1.252 4.218 1.325.213.01.425.01.638 0 1.514-.073 2.901-.585 4.218-1.325 1.697-.955 3.178-2.203 4.527-3.621.471-.495.654-.708.654-.708a1.231 1.231 0 0 0-.042-1.615zm-5.232.883l-.001.033.001.081c-.024 2.5-2.029 4.541-4.444 4.531-2.415.01-4.42-2.032-4.444-4.531l.001-.081-.001-.033V10.379c-.025-2.536 1.954-4.612 4.42-4.635h.048c2.466.023 4.445 2.099 4.42 4.635v.227z" fill-rule="evenodd"/>
</symbol><symbol id="icon-menu" viewBox="0 0 20 20">
  <path d="M3 15v-2h14v2H3zm0-6h14v2H3V9zm0-4h14v2H3V5z" fill-rule="evenodd"/>
</symbol><symbol id="icon-mobile" viewBox="0 0 8 14">
  <path d="M6.972 0A1.024 1.024 0 0 1 8 1.019v11.962A1.021 1.021 0 0 1 6.972 14H1.028A1.024 1.024 0 0 1 0 12.982V1.02A1.021 1.021 0 0 1 1.028 0h5.944zm-4.87.957V.955a.783.783 0 0 0 .003.984h3.798a.783.783 0 0 0 0-.982h-3.8zM6.98 11.016V2.97H.99v8.046h5.99zM3.5 12a.5.5 0 1 0 0 1h1.002a.5.5 0 1 0 0-1H3.499z" fill-rule="evenodd"/>
</symbol><symbol id="icon-range" viewBox="0 0 12 9">
  <path fill-rule="evenodd" d="M11.946 2.717a.467.467 0 0 1-.127.265L9.947 4.854a.567.567 0 0 1-.801 0 .567.567 0 0 1 0-.801L10.199 3H2.5a.5.5 0 0 1 0-1h7.699L9.146.947a.567.567 0 0 1 0-.801.565.565 0 0 1 .801 0l1.872 1.872a.467.467 0 0 1 .127.265A.494.494 0 0 1 12 2.5a.5.5 0 0 1-.054.217zM2.053 4.145c.221-.22.58-.22.801 0a.56.56 0 0 1 0 .796L1.789 6h7.727a.485.485 0 0 1 0 .969H1.788l1.066 1.059a.56.56 0 0 1 0 .796.569.569 0 0 1-.801 0L.181 6.964a.463.463 0 0 1-.127-.268A.473.473 0 0 1 0 6.484c0-.077.022-.147.054-.212a.47.47 0 0 1 .127-.267l1.872-1.86z"/>
</symbol><symbol id="icon-rewind" viewBox="0 0 40 33">
  <path fill-rule="evenodd" d="M37.389.864c-.514 0-1.193-.062-1.741.311L21.147 13.266V3.14c0-.389.009-2.276-2.044-2.276-.513 0-1.193-.062-1.74.311L1.337 14.537C-.183 15.572.08 16.795.08 16.795s-.263 1.222 1.257 2.258l16.026 13.362c.547.373 1.227.311 1.74.311 2.053 0 2.044-1.816 2.044-2.276V20.324l14.501 12.091c.548.373 1.227.311 1.741.311 2.053 0 2.044-1.816 2.044-2.276V3.14c0-.389.009-2.276-2.044-2.276z"/>
</symbol><symbol id="icon-search" viewBox="0 0 18 18">
  <path d="M13.966 12.504l3.694 3.694a1.031 1.031 0 1 1-1.46 1.457l-3.692-3.693A7.214 7.214 0 0 1 3.09 3.085a7.212 7.212 0 0 1 10.877 9.419zm-2.13-.683A5.153 5.153 0 0 0 4.54 4.542a5.153 5.153 0 1 0 7.297 7.278z" fill-rule="evenodd"/>
</symbol><symbol id="icon-socials" viewBox="0 0 126 14.44">
  <path d="M122.05.22h-6.42a3.948 3.948 0 0 0-3.96 3.92v6.37a3.948 3.948 0 0 0 3.96 3.92h6.42a3.939 3.939 0 0 0 3.95-3.92V4.14a3.939 3.939 0 0 0-3.95-3.92zm2.68 10.29a2.676 2.676 0 0 1-2.68 2.66h-6.42a2.685 2.685 0 0 1-2.69-2.66V4.14a2.678 2.678 0 0 1 2.69-2.66h6.42a2.67 2.67 0 0 1 2.68 2.66v6.37zm-5.89-6.85a3.66 3.66 0 1 0 3.69 3.66 3.683 3.683 0 0 0-3.69-3.66zm0 6.06a2.4 2.4 0 1 1 2.42-2.4 2.4 2.4 0 0 1-2.42 2.4zm3.84-7.13a.975.975 0 0 0-.66.27.929.929 0 0 0 0 1.31.975.975 0 0 0 .66.27.938.938 0 0 0 .66-.27.929.929 0 0 0 0-1.31.938.938 0 0 0-.66-.27zM39.15 4.71h1.48V3.28a3.791 3.791 0 0 1 .48-2.2A2.658 2.658 0 0 1 43.42.01a9.622 9.622 0 0 1 2.67.26l-.37 2.18a5.008 5.008 0 0 0-1.2-.18.9.9 0 0 0-1.1.78v1.66h2.37l-.16 2.12h-2.21v7.39h-2.79V6.83h-1.48V4.71zM88.78 2.6a6.336 6.336 0 0 1-1.78.48 3.079 3.079 0 0 0 1.36-1.69 6.318 6.318 0 0 1-1.97.74 3.115 3.115 0 0 0-2.26-.96 3.056 3.056 0 0 0-3.02 3.75 8.82 8.82 0 0 1-6.38-3.19 2.952 2.952 0 0 0-.42 1.53 3.026 3.026 0 0 0 1.38 2.55 3.184 3.184 0 0 1-1.41-.38v.04a3.074 3.074 0 0 0 2.49 3 3.177 3.177 0 0 1-.82.1 2.782 2.782 0 0 1-.58-.05 3.076 3.076 0 0 0 2.89 2.12 6.2 6.2 0 0 1-3.85 1.32 5.835 5.835 0 0 1-.73-.05 8.828 8.828 0 0 0 4.74 1.38 8.706 8.706 0 0 0 8.82-8.71c0-.13 0-.26-.01-.4a6.463 6.463 0 0 0 1.55-1.58zM.02 1.79h5.61c1.85 0 3.42.89 3.42 2.7a2.737 2.737 0 0 1-1.69 2.75c.1.08.75.27.97.38a2.484 2.484 0 0 1 .78.58 2.688 2.688 0 0 1 .77 2.25c0 2.35-2.31 3.54-4.53 3.54H0l.02-12.2zm3.05 3.2v1.59c1.45 0 2.8.18 2.8-1.36 0-1.44-1.53-1.2-2.8-1.2v.97zm0 6.75c1.58 0 3.54.26 3.57-1.52.04-1.85-2-1.51-3.57-1.51v3.03z" fill-rule="evenodd"/>
</symbol><symbol id="icon-twitter" viewBox="0 0 14 11">
  <path d="M13.64 1.3a5.38 5.38 0 0 1-1.511.407A2.614 2.614 0 0 0 13.283.272 5.364 5.364 0 0 1 11.611.9 2.645 2.645 0 0 0 9.692.085 2.595 2.595 0 0 0 7.128 3.27 7.488 7.488 0 0 1 1.712.56a2.506 2.506 0 0 0-.357 1.299 2.57 2.57 0 0 0 1.172 2.164 2.703 2.703 0 0 1-1.198-.322v.034a2.61 2.61 0 0 0 2.114 2.547 2.697 2.697 0 0 1-.696.085 2.362 2.362 0 0 1-.492-.043 2.612 2.612 0 0 0 2.453 1.8 5.264 5.264 0 0 1-3.268 1.12 4.954 4.954 0 0 1-.62-.042 7.495 7.495 0 0 0 4.024 1.172 7.391 7.391 0 0 0 7.488-7.395c0-.11 0-.22-.008-.34A5.487 5.487 0 0 0 13.64 1.3z" fill-rule="evenodd"/>
</symbol><symbol id="icon-viber" viewBox="0 0 28 32">
  <path d="M.627 9.212a9.753 9.753 0 0 1 6.455-6.47h.032a34.435 34.435 0 0 1 13.502 0h.032a9.751 9.751 0 0 1 6.455 6.47v.034a28.696 28.696 0 0 1 0 11.861v.034a9.751 9.751 0 0 1-6.455 6.47h-.032a34.61 34.61 0 0 1-6.75.668 33.95 33.95 0 0 1-1.993-.06l-3.059 3.313a1.208 1.208 0 0 1-2.089-.877v-3.138A9.856 9.856 0 0 1 .626 21.14v-.034a28.696 28.696 0 0 1 0-11.861v-.034zM3.04 20.538a7.368 7.368 0 0 0 4.557 4.546.18.18 0 0 1 .141.175v5.212a.276.276 0 0 0 .478.201l4.61-4.928a.167.167 0 0 1 .126-.053 32.065 32.065 0 0 0 7.183-.604 7.373 7.373 0 0 0 4.557-4.546 26.022 26.022 0 0 0 0-10.72 7.363 7.363 0 0 0-4.557-4.546 32.067 32.067 0 0 0-12.538 0A7.368 7.368 0 0 0 3.04 9.821a26.013 26.013 0 0 0 0 10.718zM8.661 8.681a.877.877 0 0 1 1.124.277 15.234 15.234 0 0 1 1.739 2.534 1.241 1.241 0 0 1-.324 1.636c-.132.094-.252.203-.375.307a1.248 1.248 0 0 0-.282.311.89.89 0 0 0-.055.747 6.663 6.663 0 0 0 3.642 4.198c.283.163.606.245.932.237a2.657 2.657 0 0 0 1.154-1.067c.37-.323.914-.348 1.312-.06.427.277.828.576 1.233.877.404.286.792.594 1.163.922a.987.987 0 0 1 .275 1.188 3.969 3.969 0 0 1-1.658 1.903 3.869 3.869 0 0 1-.717.239c-.279-.087-.546-.149-.794-.256a17.982 17.982 0 0 1-6.797-4.732 18.488 18.488 0 0 1-2.601-4.145c-.333-.706-.614-1.44-.902-2.17a1.934 1.934 0 0 1 .529-1.854 4.19 4.19 0 0 1 1.402-1.094zm5.223 1.318a.365.365 0 0 1 .403-.371 5.13 5.13 0 0 1 2.197.597 4.632 4.632 0 0 1 2.421 3.601c0 .073.028.147.032.213.013.181.021.363.034.604a1.65 1.65 0 0 1-.032.243.375.375 0 0 1-.716.04 1.08 1.08 0 0 1-.041-.339 4.39 4.39 0 0 0-.514-2.133 3.869 3.869 0 0 0-1.591-1.555 4.426 4.426 0 0 0-1.269-.405c-.192-.034-.384-.053-.576-.081a.38.38 0 0 1-.348-.406v-.009zm2.541 4.139a4.044 4.044 0 0 0-.079-.559 1.58 1.58 0 0 0-.555-.911 1.426 1.426 0 0 0-.454-.228c-.213-.062-.427-.045-.625-.096a.396.396 0 0 1-.311-.463.406.406 0 0 1 .427-.337 2.346 2.346 0 0 1 2.364 2.395c.017.112.017.227 0 .339a.344.344 0 0 1-.282.284H16.855a.427.427 0 0 1-.427-.414l-.002-.011zm3.545 1.297c-.034-.497-.058-.996-.124-1.493a6.138 6.138 0 0 0-4.828-5.222c-.375-.068-.759-.087-1.137-.128a.548.548 0 0 1-.608-.352.427.427 0 0 1 .405-.48h.194c3.223.094.196 0 0 0a6.904 6.904 0 0 1 6.694 5.875c.1.589.137 1.19.181 1.79a.427.427 0 0 1-.379.493.442.442 0 0 1-.399-.474v-.009z"/>
</symbol><symbol id="icon-vk" viewBox="0 0 10 12">
  <path d="M.47.346h5.098c1.682 0 3.109.809 3.109 2.454A2.488 2.488 0 0 1 7.14 5.3c.09.072.681.245.881.345.269.127.51.306.71.527.538.536.796 1.291.699 2.045 0 2.136-2.1 3.217-4.117 3.217H.45L.47.346zM3.24 3.254V4.7c1.318 0 2.545.164 2.545-1.236 0-1.309-1.39-1.09-2.545-1.09v.881zm0 6.135c1.436 0 3.218.237 3.245-1.381.036-1.682-1.818-1.373-3.245-1.373V9.39z" fill-rule="evenodd"/>
</symbol><symbol id="icon-whatsapp" viewBox="0 0 32 32">
  <path d="M23.678 18.388c-.062-.03-2.395-1.179-2.809-1.329a1.637 1.637 0 0 0-.544-.118.925.925 0 0 0-.785.465c-.246.347-.938 1.172-1.157 1.418a.182.182 0 0 1-.091.071c-.02 0-.382-.148-.492-.194a12.253 12.253 0 0 1-4.662-4.143.26.26 0 0 1-.039-.094.861.861 0 0 1 .135-.16c.128-.126.266-.29.399-.453.064-.074.126-.153.19-.222.154-.182.28-.385.377-.603l.054-.103a1.087 1.087 0 0 0-.032-1.024c-.057-.111-1.041-2.489-1.145-2.737a1.153 1.153 0 0 0-1.049-.884h-.18a5.6 5.6 0 0 0-1.94.492 4.063 4.063 0 0 0-1.506 3.446 7.444 7.444 0 0 0 1.615 4.101c0 .015.034.049.066.096a15.204 15.204 0 0 0 6.518 5.662c1.236.587 2.573.928 3.938 1.007a6.21 6.21 0 0 0 .64-.039h.113A4.146 4.146 0 0 0 24.179 21c.3-.667.364-1.416.182-2.124a1.474 1.474 0 0 0-.684-.487zM16.293 0C7.65-.022.619 6.956.576 15.599a15.492 15.492 0 0 0 2.156 7.877L.024 31.439a.413.413 0 0 0 .098.423.407.407 0 0 0 .421.106l8.303-2.639A15.636 15.636 0 1 0 16.283 0h.01zm0 27.948a12.45 12.45 0 0 1-6.85-2.043.41.41 0 0 0-.352-.049l-4.16 1.322 1.344-3.961a.423.423 0 0 0-.059-.379 12.174 12.174 0 0 1-2.37-7.239 12.448 12.448 0 1 1 12.438 12.347l.01.002z"/>
</symbol><symbol id="icon-google-plus" viewBox="0 0 170 100">
    <polygon id="Shape" points="147.8 43.2 147.8 22 137.2 22 137.2 43.2 116 43.2 116 53.8 137.2 53.8 137.2 75 147.8 75 147.8 53.8 169 53.8 169 43.2"></polygon>
                    <path d="M53,42.4 L53,63.6 L82.9874,63.6 C78.6096,75.9384 66.8224,84.8 53,84.8 C35.4676,84.8 21.2,70.5324 21.2,53 C21.2,35.4676 35.4676,21.2 53,21.2 C60.6002,21.2 67.9142,23.9242 73.5958,28.8744 L87.5242,12.8896 C77.9842,4.5792 65.7306,0 53,0 C23.7758,0 0,23.7758 0,53 C0,82.2242 23.7758,106 53,106 C82.2242,106 106,82.2242 106,53 L106,42.4 L53,42.4 Z" id="Shape"></path>
                </symbol>
    <symbol id="icon-uoutube" viewBox="0 0 150 100">
    <path d="M146.075432,9.18518926 C140.588723,2.66119377 130.458658,0 111.11249,0 L40.8860387,0 C21.0971097,0 10.7954323,2.83285205 5.32931613,9.77863645 C0,16.5508008 0,26.5290513 0,40.339205 L0,66.6612854 C0,93.4159447 6.3232,107 40.8860387,107 L111.112981,107 C127.889858,107 137.186374,104.651715 143.200671,98.8942961 C149.368439,92.9902322 152,83.3503937 152,66.6612854 L152,40.339205 C152,25.7752262 151.587639,15.7381214 146.075432,9.18518926 Z M97.5844903,57.134251 L65.6948903,73.8052125 C64.9819613,74.1779562 64.2023484,74.3628567 63.4237161,74.3628567 C62.5421161,74.3628567 61.6624774,74.1254778 60.8833548,73.6536628 C59.4163097,72.7644729 58.5204903,71.1739364 58.5204903,69.4583345 L58.5204903,36.2233299 C58.5204903,34.5106708 59.4138581,32.9216056 60.8779613,32.0319252 C62.3425548,31.1422449 64.1641032,31.0814288 65.6836129,31.8710569 L97.5732129,48.4346094 C99.1956903,49.2772063 100.214581,50.9525911 100.217032,52.7805066 C100.218994,54.6098934 99.2045161,56.2877304 97.5844903,57.134251 Z" id="XMLID_823_"></path>
    </symbol>
        <symbol id="icon-logout" viewBox="0 0 100 100">
        <path d="M40.801,86 C47.9807,86 53.801,80.1797 53.801,73 L53.801,65.949 C53.801,63.1873 51.5627,60.949 48.801,60.949 C46.0393,60.949 43.801,63.1873 43.801,65.949 L43.801,73 C43.801,74.6562 42.4572,76 40.801,76 L13.801,76 C12.1448,76 10.801,74.6562 10.801,73 L10.801,13 C10.801,11.3438 12.1448,10 13.801,10 L40.801,10 C42.4572,10 43.801,11.3438 43.801,13 L43.801,20.199 C43.801,22.9607 46.0393,25.199 48.801,25.199 C51.5627,25.199 53.801,22.9607 53.801,20.199 L53.801,13 C53.801,5.8203 47.9807,0 40.801,0 L13.801,0 C6.6213,0 0.800999,5.8203 0.800999,13 L0.800999,73 C0.800999,80.1797 6.6213,86 13.801,86 L40.801,86 Z" id="Fill-1"></path>
                    <path d="M79.6723946,39.9539956 L62.6393336,22.9209347 C61.0488513,21.3843093 58.5204962,21.4064522 56.9553201,22.9716283 C55.390144,24.5368044 55.368001,27.0651595 56.9046265,28.6556419 L67.157718,38.9087334 L32.8571807,38.9087334 C30.617171,38.9087334 28.80169,40.7242144 28.80169,42.9642241 C28.80169,45.2042339 30.617171,47.0197148 32.8571807,47.0197148 L67.157718,47.0197148 L56.8729936,57.3044393 C56.0904137,58.0616724 55.6436933,59.0976961 55.6342034,60.1876498 C55.6246974,61.2743591 56.05243,62.3199457 56.8223,63.0898401 C57.5922106,63.8597506 58.637781,64.2875076 59.7244902,64.2779366 C60.8144439,64.2684305 61.8504596,63.8216939 62.6077008,63.0391464 L79.6407617,46.0060855 C80.5057168,45.245681 81,44.1494007 81,42.9961814 C81,41.8460442 80.505733,40.7498451 79.6407617,39.9862773 L79.6723946,39.9539956 Z" id="Fill-2"></path>
    </symbol>
        <symbol id="icon-user" viewBox="0 0 100 100">
  <path d="M68.68,26.094 C68.68,36.422 60.3206,44.785 50,44.785 C39.676,44.785 31.316,36.4217 31.316,26.094 C31.316,15.778 39.6754,7.414 50,7.414 C60.316,7.41791 68.68,15.7773 68.68,26.094 Z" id="Fill-1"></path>
                    <path d="M84.82,84.32 C84.82,95.34 15.175,95.34 15.175,84.32 C15.175,67.797 30.761,55.32 49.995,55.32 C69.241,55.32 84.819,67.797 84.819,84.32 L84.82,84.32 Z" id="Fill-2"></path>
    </symbol>
</svg>